<svg version="1.1"
     xmlns="http://www.w3.org/2000/svg"
     viewBox="0 0 100 100"
     stroke-linecap="round"
     stroke-linejoin="round"
     stroke-width="4"
     fill="none"
  >
  <defs>
    <mask id="mask">
      <path stroke="white"
            d="M10 79.5
               h80
               a8 8,0 0 0,8-8
               v-43
               a8 8,0 0 0,-8-8
               h-80
               a8 8,0 0 0,-8 8
               v43
               a8 8,0 0 0,8 8
               
               M20 69.5
               h40
               a8 8,0 0 0,8-8
               v-23
               a8 8,0 0 0,-8-8
               h-40
               a8 8,0 0 0,-8 8
               v23
               a8 8,0 0 0,8 8
               
               M40 20
               l9-12
               M40 20
               l-24-18
               
               M75.5 69.5
               h15
               M75.5 62.5
               h15
               M75.5 55.5
               h15
               
               M75.5 38
               a7.5 7.5,0 0 0,15 0
               a7.5 7.5,0 0 0,-15 0
               "/>
      <path fill="rgba(255,255,255,0.15)"
            d="M20 69.5
               h40
               a8 8,0 0 0,8-8
               v-23
               a8 8,0 0 0,-8-8
               h-40
               a8 8,0 0 0,-8 8
               v23
               a8 8,0 0 0,8 8
               "/>
    </mask>
    <linearGradient id="gradient"
                    x1="0" y1="0"
                    x2="1" y2="0">
      <stop offset="0%" stop-color="mediumspringgreen"/>
      <stop offset="100%" stop-color="dodgerblue"/>
    </linearGradient>
  </defs>
  <rect width="100" height="100"
        mask="url(#mask)"
        fill="url(#gradient)"/>
</svg>
